<svg width="205" height="210" viewBox="0 0 205 210" fill="none" xmlns="http://www.w3.org/2000/svg">
<path d="M198.91 118.401C200.155 118.401 200.518 120.994 199.999 126.18C199.481 130.64 198.806 134.011 197.977 136.293C194.969 145.109 188.382 150.606 178.218 152.784C178.218 163.779 173.136 175.81 162.971 188.879C152.91 201.948 143.783 208.482 135.589 208.482C129.677 208.482 121.431 206.615 110.851 202.881C100.998 199.355 96.0712 197.021 96.0712 195.88C96.0712 195.154 97.7826 194.998 101.205 195.413C107.117 196.243 112.822 196.606 118.319 196.502C125.372 196.295 132.633 194.376 140.101 190.746C148.813 186.39 156.851 180.27 164.216 172.387C170.231 165.957 173.239 161.756 173.239 159.785C173.239 156.777 171.009 153.044 166.549 148.584C165.927 147.858 165.771 147.028 166.083 146.094C167.846 140.182 169.557 135.411 171.217 131.781C171.32 131.573 171.372 131.314 171.372 131.003C171.476 130.899 171.58 130.899 171.683 131.003C171.787 131.107 172.046 131.47 172.461 132.092C174.64 134.166 177.336 135.204 180.552 135.204C185.634 135.204 189.523 133.752 192.22 130.847C193.672 129.188 195.021 126.491 196.265 122.757C197.199 119.853 198.08 118.401 198.91 118.401ZM204.667 194.635C201.762 200.34 199.014 205.319 196.421 209.571C191.442 207.393 186.204 203.97 180.707 199.303C181.329 197.851 184.078 192.976 188.953 184.678C193.309 187.479 198.547 190.798 204.667 194.635Z" fill="white"/>
<path d="M151.458 50.5738L142.59 66.443L129.21 57.5749L122.209 70.6437L105.717 60.3753L113.652 44.5061L128.277 53.0631L135.278 39.9943L151.458 50.5738ZM157.526 126.964C157.526 135.262 156.696 142.418 155.037 148.434C151.821 159.636 143.109 169.801 128.899 178.928C115.312 187.744 102.139 192.204 89.3814 192.308C81.4986 192.412 74.8087 190.233 69.3115 185.774C61.7399 179.654 58.0059 170.06 58.1096 156.991C58.2134 148.175 60.2359 139.047 64.1773 129.609C65.8368 125.771 67.0296 123.852 67.7557 123.852C68.1705 123.852 68.378 124.164 68.378 124.786C68.378 124.993 67.7557 127.69 66.511 132.876C65.2664 137.958 64.5922 142.781 64.4885 147.345C64.3847 155.954 66.9259 162.799 72.1119 167.882C77.2979 172.964 84.4547 175.401 93.5821 175.194C108.414 174.779 122.831 169.334 136.834 158.858C145.546 152.427 150.11 148.279 150.525 146.412C151.873 136.247 150.94 127.846 147.724 121.207C146.998 124.215 145.183 127.016 142.279 129.609C139.375 132.098 136.419 133.343 133.411 133.343C129.469 133.343 126.098 131.735 123.298 128.52C120.498 125.304 119.097 121.415 119.097 116.851C119.097 108.242 120.964 101.034 124.698 95.2255C128.121 89.832 131.751 87.3427 135.589 87.7576C142.849 88.5873 148.554 93.6696 152.703 103.004C155.918 110.369 157.526 118.355 157.526 126.964ZM139.478 110.161C139.478 109.228 138.597 108.242 136.834 107.205C135.174 106.168 133.566 105.649 132.011 105.649C131.284 105.649 130.144 106.272 128.588 107.516C127.136 108.761 126.41 109.954 126.41 111.095C126.41 111.717 127.136 112.547 128.588 113.584C130.144 114.517 131.751 114.984 133.411 114.984C137.456 114.984 139.478 113.377 139.478 110.161Z" fill="white"/>
<path d="M126.111 7.90533L117.09 1.19192L108.698 34.9688L126.111 7.90533Z" fill="#EA5153"/>
<path d="M115.412 87.2075L108.698 75.8786L68.208 148.258L115.412 87.2075Z" fill="#EA5153"/>
<path d="M65.9002 61.6126L95.2714 0.142944L28.9765 21.7517L38.8368 77.557L57.0889 74.2003L52.2636 151.824L91.2853 59.9343L65.9002 61.6126Z" fill="#EA5153"/>
<path d="M0.444458 71.2632L11.7733 57.6266L35.4801 133.362L0.444458 71.2632Z" fill="#EA5153"/>
</svg>
